HIERARCHY
ROOT Hips
{
	OFFSET 0.00000 0.00000 0.00000
	CHANNELS 6 Xposition Yposition Zposition Zrotation Yrotation Xrotation 
	JOINT LHipJoint
	{
		OFFSET 0 0 0
		CHANNELS 3 Zrotation Yrotation Xrotation
		JOINT LeftUpLeg
		{
			OFFSET 1.88772 -1.62769 0.85636
			CHANNELS 3 Zrotation Yrotation Xrotation
			JOINT LeftLeg
			{
				OFFSET 2.39836 -6.58946 0.00000
				CHANNELS 3 Zrotation Yrotation Xrotation
				JOINT LeftFoot
				{
					OFFSET 2.78523 -7.65237 0.00000
					CHANNELS 3 Zrotation Yrotation Xrotation
					JOINT LeftToeBase
					{
						OFFSET 0.19551 -0.53715 1.90694
						CHANNELS 3 Zrotation Yrotation Xrotation
						End Site
						{
							OFFSET 0.00000 -0.00000 0.99735
						}
					}
				}
			}
		}
	}
	JOINT RHipJoint
	{
		OFFSET 0 0 0
		CHANNELS 3 Zrotation Yrotation Xrotation
		JOINT RightUpLeg
		{
			OFFSET -1.74282 -1.62769 0.85636
			CHANNELS 3 Zrotation Yrotation Xrotation
			JOINT RightLeg
			{
				OFFSET -2.36062 -6.48575 0.00000
				CHANNELS 3 Zrotation Yrotation Xrotation
				JOINT RightFoot
				{
					OFFSET -2.76258 -7.59014 0.00000
					CHANNELS 3 Zrotation Yrotation Xrotation
					JOINT RightToeBase
					{
						OFFSET -0.19308 -0.53048 2.03952
						CHANNELS 3 Zrotation Yrotation Xrotation
						End Site
						{
							OFFSET -0.00000 -0.00000 1.06031
						}
					}
				}
			}
		}
	}
	JOINT LowerBack
	{
		OFFSET 0 0 0
		CHANNELS 3 Zrotation Yrotation Xrotation
		JOINT Spine
		{
			OFFSET -0.08299 2.03160 -0.30721
			CHANNELS 3 Zrotation Yrotation Xrotation
			JOINT Spine1
			{
				OFFSET -0.01030 2.00603 0.13891
				CHANNELS 3 Zrotation Yrotation Xrotation
				JOINT Neck
				{
					OFFSET 0 0 0
					CHANNELS 3 Zrotation Yrotation Xrotation
					JOINT Neck1
					{
						OFFSET 0.04282 1.69578 0.19991
						CHANNELS 3 Zrotation Yrotation Xrotation
						JOINT Head
						{
							OFFSET -0.08665 1.66622 -0.03785
							CHANNELS 3 Zrotation Yrotation Xrotation
							End Site
							{
								OFFSET -0.03699 1.83329 -0.04094
							}
						}
					}
				}
				JOINT LeftShoulder
				{
					OFFSET 0 0 0
					CHANNELS 3 Zrotation Yrotation Xrotation
					JOINT LeftArm
					{
						OFFSET 3.04219 1.50803 -0.05347
						CHANNELS 3 Zrotation Yrotation Xrotation
						JOINT LeftForeArm
						{
							OFFSET 5.79199 -0.00000 0.00000
							CHANNELS 3 Zrotation Yrotation Xrotation
							JOINT LeftHand
							{
								OFFSET 3.49908 -0.00000 0.00000
								CHANNELS 3 Zrotation Yrotation Xrotation
								JOINT LeftFingerBase
								{
									OFFSET 0 0 0
									CHANNELS 3 Zrotation Yrotation Xrotation
									JOINT LeftHandIndex1
									{
										OFFSET 0.59386 -0.00000 0.00000
										CHANNELS 3 Zrotation Yrotation Xrotation
										End Site
										{
											OFFSET 0.47879 -0.00000 0.00000
										}
									}
								}
								JOINT LThumb
								{
									OFFSET 0 0 0
									CHANNELS 3 Zrotation Yrotation Xrotation
									End Site
									{
										OFFSET 0.48610 -0.00000 0.48610
									}
								}
							}
						}
					}
				}
				JOINT RightShoulder
				{
					OFFSET 0 0 0
					CHANNELS 3 Zrotation Yrotation Xrotation
					JOINT RightArm
					{
						OFFSET -3.30316 1.18853 0.11175
						CHANNELS 3 Zrotation Yrotation Xrotation
						JOINT RightForeArm
						{
							OFFSET -5.73799 -0.00000 0.00000
							CHANNELS 3 Zrotation Yrotation Xrotation
							JOINT RightHand
							{
								OFFSET -3.57916 -0.00000 -0.00000
								CHANNELS 3 Zrotation Yrotation Xrotation
								JOINT RightFingerBase
								{
									OFFSET 0 0 0
									CHANNELS 3 Zrotation Yrotation Xrotation
									JOINT RightHandIndex1
									{
										OFFSET -0.61558 -0.00000 0.00000
										CHANNELS 3 Zrotation Yrotation Xrotation
										End Site
										{
											OFFSET -0.49629 -0.00000 0.00000
										}
									}
								}
								JOINT RThumb
								{
									OFFSET 0 0 0
									CHANNELS 3 Zrotation Yrotation Xrotation
									End Site
									{
										OFFSET -0.50387 -0.00000 0.50387
									}
								}
							}
						}
					}
				}
			}
		}
	}
}
MOTION
Frames: 10
Frame Time: 0.00769231
0.00 0.00 0.00 0 0 0 0 0 0 -21 0 0 0 0 0 0 0 0 0 0 0 0 0 0 21 0 0 0 0 0 0 0 0 0 0 0 0 0 0 0 0 0 0 0 0 0 0 -16 0 0 21 0 0 11 0 0 0 -8 0 0 0 0 0 0 0 0 0 0 0 0 0 0 0 0 0 0 0 0 8 0 0 0 0 0 0 0 0 0 0 0 0 0 0 0 0 0
0.00 0.00 0.00 2.5646 -18.8801 8.1148 0.0000 0.0000 0.0000 -14.6189 -12.6890 -20.6867 3.2717 11.1224 32.6939 1.5154 3.5982 -24.7882 0.5307 -4.6684 -12.9651 0.0000 0.0000 0.0000 14.3305 11.8580 -18.9984 -3.1089 -10.8693 31.8404 -0.8366 -12.1708 -25.6225 -0.1099 2.1375 -5.8859 -5.8757 1.0325 4.2561 -1.1844 0.9771 -1.6997 1.9892 0.6249 -4.2349 4.6122 3.3842 -2.1022 -6.4541 4.1917 -6.3043 -2.8853 2.0891 -1.3831 0.0000 0.0000 0.0000 -71.8609 10.1354 -3.1218 7.3679 -12.5231 -0.8095 -0.0000 -0.0000 1.7795 4.8570 -14.8348 -1.2463 -7.1250 0.0000 -0.0000 -15.3027 15.4327 11.0871 0.0000 0.0000 0.0000 80.3222 -13.0954 36.6507 -16.4384 26.1114 -3.8369 0.0000 -0.0000 -10.7812 -20.3254 -31.5662 10.9739 7.1250 -0.0000 -0.0000 13.9897 -62.6789 -6.0707
0.00 0.00 0.00 2.2610 -17.4962 4.0877 0.0000 0.0000 0.0000 -12.1131 -9.4057 -21.6972 4.8244 13.1832 40.0583 1.5327 -0.3085 -23.3286 0.1636 -2.6055 -7.1824 0.0000 0.0000 0.0000 17.3550 8.8454 -17.7250 -4.1550 -12.3638 37.0314 -1.7377 -6.8031 -28.1373 -0.0124 0.7181 -1.9733 -3.8691 1.0613 3.9215 -1.2167 1.1368 -2.1944 0.8213 0.6601 -4.5237 4.6478 3.7301 -5.0214 -2.7280 4.7466 0.4617 -1.5187 2.3426 1.1844 -0.0000 -0.0000 0.0000 -74.4093 -23.2796 35.9035 66.4806 -57.8031 -39.7818 -0.0000 0.0000 -44.4028 20.7167 -19.0695 -7.0440 -7.1250 0.0000 -0.0000 -4.8672 9.7548 3.9870 -0.0000 -0.0000 0.0000 76.8064 32.3614 66.3358 -75.5110 59.1917 -47.4862 0.0000 -0.0000 -11.0490 -20.4777 -27.3139 9.7237 7.1250 -0.0000 -0.0000 11.0817 -58.5030 -3.6884
0.00 0.00 0.00 1.8366 -17.7675 3.6243 0.0000 0.0000 0.0000 -11.1931 -8.2741 -23.4919 5.6999 14.1311 43.7652 1.4250 -1.5419 -22.1253 0.1346 -2.3648 -6.5148 0.0000 0.0000 0.0000 17.9794 7.8282 -17.7054 -4.3393 -12.5987 37.8843 -1.8757 -5.5153 -28.3320 -0.0000 0.0311 -0.0854 -3.1608 0.8976 4.3836 -1.0844 0.9458 -2.2044 0.5698 0.5492 -4.7762 3.8830 3.5771 -3.5237 -1.9029 4.6259 -0.4331 -1.1579 2.2937 0.5938 0.0000 -0.0000 0.0000 -74.4247 -25.2209 35.7404 87.8248 -59.9821 -58.1163 -0.0000 0.0000 -48.3115 24.9708 -22.0638 -9.9224 -7.1250 0.0000 -0.0000 -2.4252 5.9079 2.1647 0.0000 -0.0000 0.0000 77.7454 35.8689 65.4551 -93.3583 59.9573 -62.9080 0.0000 -0.0000 -15.7147 -25.6640 -24.9417 11.4543 7.1250 -0.0000 -0.0000 4.3437 -57.2196 -1.3019
0.00 0.00 0.00 2.6054 -18.1627 3.0635 0.0000 0.0000 0.0000 -11.6743 -7.0284 -25.8436 6.6487 15.0288 47.5327 1.1290 -0.5234 -19.9240 0.3968 -4.0447 -11.2024 0.0000 0.0000 0.0000 17.1683 6.7582 -18.0196 -4.5450 -12.8523 38.8180 -1.9165 -4.1773 -27.9177 -0.0076 0.5629 -1.5468 -3.8397 0.8738 4.7218 -1.1053 0.8504 -2.2501 0.9306 0.5268 -5.0256 4.0805 3.4650 -3.8421 -1.9855 4.4585 0.0397 -1.2127 2.2111 0.7982 0.0000 -0.0000 0.0000 -75.5918 -27.3298 35.6138 107.6267 -58.7928 -75.2033 -0.0000 0.0000 -52.0572 28.5939 -25.7117 -13.3048 -7.1250 0.0000 -0.0000 -0.6971 1.2410 0.6819 0.0000 -0.0000 0.0000 79.1173 39.3908 64.2637 -108.7468 58.6295 -76.1605 0.0000 -0.0000 -20.3340 -30.0910 -22.8724 12.6929 7.1250 -0.0000 -0.0000 -1.1570 -55.9679 0.3114
0.00 0.00 0.00 2.1269 -18.9239 2.8652 0.0000 0.0000 0.0000 -10.5483 -6.0692 -27.9473 7.5827 15.8036 51.0454 0.9077 -0.9418 -17.7137 0.1746 -2.6918 -7.4220 0.0000 0.0000 0.0000 17.7694 6.5067 -17.8865 -4.6867 -13.0221 39.4511 -2.0030 -3.1235 -28.0043 -0.0001 -0.0548 0.1504 -3.5267 0.8098 5.2385 -0.7424 0.7739 -2.5103 1.1294 0.4961 -5.5895 4.2765 3.7310 -4.1291 -2.1161 4.8018 1.1564 -1.2673 2.3881 1.2212 0.0000 0.0000 0.0000 -76.3920 -28.5168 35.1928 124.6035 -54.9529 -89.4597 -0.0000 0.0000 -55.7807 31.1733 -26.3812 -15.0465 -7.1250 0.0000 -0.0000 0.7256 -0.1190 -0.7271 0.0000 0.0000 0.0000 81.9136 43.3333 63.9533 -120.0372 56.3000 -85.6898 0.0000 -0.0000 -21.7718 -29.5174 -20.4274 11.1780 7.1250 -0.0000 -0.0000 -1.0615 -53.1471 0.2128
0.00 0.00 0.00 2.5448 -20.2960 2.4791 0.0000 0.0000 0.0000 -10.3198 -4.8301 -29.9281 8.1308 16.2146 53.0326 0.8333 -1.3867 -16.8354 0.6317 -5.0855 -14.1525 0.0000 0.0000 0.0000 17.2951 6.2422 -17.6786 -4.8167 -13.1743 40.0246 -2.0016 -2.2677 -27.6294 -0.0663 1.6612 -4.5701 -3.1444 0.8398 5.2532 -1.1103 0.8253 -2.4045 0.5289 0.4977 -5.4766 4.7410 3.7738 -4.4006 -2.3161 4.8276 1.3302 -1.4054 2.4002 1.3459 -0.0000 -0.0000 0.0000 -77.6454 -30.0853 35.2437 139.4504 -48.3922 -101.1509 -0.0000 0.0000 -59.3947 32.0364 -26.5262 -15.6139 -7.1250 0.0000 -0.0000 1.2083 -0.5049 -1.2192 -0.0000 -0.0000 0.0000 86.0273 47.4344 62.8309 -131.2313 52.4867 -94.8059 0.0000 -0.0000 -24.7992 -25.8600 -17.7144 8.3898 7.1250 -0.0000 -0.0000 2.1192 -49.5111 -0.2358
0.00 0.00 0.00 3.2823 -22.8370 1.5736 0.0000 0.0000 0.0000 -9.6991 -3.9200 -30.4275 6.9127 15.2579 48.5432 0.9022 -0.6598 -17.7429 0.7004 -5.3495 -14.9083 0.0000 0.0000 0.0000 16.1041 5.9445 -16.9471 -5.0979 -13.4932 41.2440 -2.0790 -0.6802 -27.5402 -0.3084 3.5701 -9.8701 -2.7641 0.5529 5.5829 -1.4247 0.4412 -2.3655 0.0249 0.2885 -5.6043 6.0288 4.1236 -4.1962 -2.8547 5.2534 1.7644 -1.7928 2.6179 1.5294 -0.0000 0.0000 0.0000 -80.9231 -30.1307 36.7015 154.4657 -36.7451 -111.3925 -0.0000 0.0000 -59.9997 31.3386 -24.9985 -14.4310 -7.1250 0.0000 -0.0000 1.0645 1.3530 -1.0392 -0.0000 0.0000 0.0000 95.1871 51.7693 65.7685 -140.8123 47.5812 -102.1628 0.0000 -0.0000 -28.6598 -18.4150 -16.6989 5.4648 7.1250 -0.0000 -0.0000 9.0201 -47.3213 -0.5207
0.00 0.00 0.00 5.4641 -34.6408 0.7327 0.0000 0.0000 0.0000 -8.2166 -2.4496 -29.3278 4.4162 12.6946 38.2357 0.5598 1.7692 -14.8846 0.0049 -0.4536 -1.2463 0.0000 0.0000 0.0000 10.8336 10.7871 -15.8603 -5.2534 -13.6636 41.9062 -2.1234 3.2085 -26.7585 -0.5636 4.8086 -13.3633 -3.5074 -0.7593 5.9060 -1.0768 -1.3603 -2.1035 0.9917 -0.5733 -5.4499 9.1756 6.0232 -3.9602 -3.8406 7.6574 1.1336 -2.6019 3.8144 1.5992 0.0000 -0.0000 0.0000 -55.3421 -31.5523 7.9042 149.3235 -41.4662 -108.1450 -0.0000 0.0000 -50.0390 12.3293 -13.5203 -2.9253 -7.1250 0.0000 -0.0000 -10.3200 16.2957 7.1275 0.0000 -0.0000 0.0000 106.4851 49.6314 76.3030 -145.6068 44.3740 -105.6126 0.0000 -0.0000 -26.0765 -14.0897 -15.4438 3.8238 7.1250 -0.0000 -0.0000 12.6533 -45.4903 -0.1556
0.00 0.00 0.00 5.8217 -35.6665 0.3229 0.0000 0.0000 0.0000 -8.8678 -1.2490 -29.6435 4.5988 12.9172 39.0593 0.4765 2.4497 -14.1635 0.3778 -3.9477 -10.9296 0.0000 0.0000 0.0000 10.2768 11.4042 -15.5822 -5.2997 -13.7136 42.1021 -2.1332 3.3399 -26.7964 -0.6263 5.0640 -14.0911 -3.8089 -0.6670 5.9099 -1.4074 -1.2752 -1.9477 0.8073 -0.5320 -5.2946 9.3706 5.9445 -2.8927 -3.1937 7.6286 1.2268 -2.4518 3.8199 1.4136 0.0000 0.0000 0.0000 -45.8460 -34.3343 3.0017 137.5317 -49.4662 -99.7042 -0.0000 0.0000 -44.6841 7.0084 -11.8916 -1.4511 -7.1250 0.0000 -0.0000 -14.0300 18.1971 9.2279 0.0000 0.0000 0.0000 106.4077 49.2781 75.5540 -145.6117 44.3704 -105.6161 0.0000 -0.0000 -26.0743 -13.2979 -14.3033 3.3418 7.1250 -0.0000 -0.0000 13.0404 -44.2619 0.2418
